<svg xmlns="http://www.w3.org/2000/svg" xml:space="preserve" width="2048" height="2048" style="shape-rendering:geometricPrecision;text-rendering:geometricPrecision;image-rendering:optimizeQuality;fill-rule:evenodd;clip-rule:evenodd"><defs><clipPath id="id0"><path d="M1024 0c565.539 0 1024 458.461 1024 1024s-458.461 1024-1024 1024S0 1589.539 0 1024 458.461 0 1024 0z"/></clipPath><style>.fil1{fill:#1e88e5}.fil6,.fil7{fill:#212121;fill-rule:nonzero}.fil6{fill:#424242}</style></defs><g id="Layer_x0020_1"><path d="M1024 0c565.539 0 1024 458.461 1024 1024s-458.461 1024-1024 1024S0 1589.539 0 1024 458.461 0 1024 0z" style="fill:#90caf9"/><g style="clip-path:url(#id0)"><g id="_341215528"><path id="_3384482881" class="fil1" d="M1438.21 608.608 2574.09 1744.49l1.14 1.46 1.08 1.51 1 1.56.93 1.62.86 1.66.77 1.71.69 1.75.61 1.79.52 1.82.43 1.87.34 1.89.25 1.93.15 1.95.05 1.98L1447.03 633.108l-.05-1.98-.15-1.953-.25-1.925-.34-1.896-.43-1.863-.52-1.828-.61-1.789-.69-1.75-.78-1.706-.85-1.662-.93-1.615-1-1.565-1.08-1.51z"/><path id="_338448144" class="fil1" d="M1447.03 633.108 2582.91 1768.99v122.39L1447.03 755.502z"/><path id="_338449344" class="fil1" d="M1569 780.159 2704.88 1916.04l.98 1.18.95 1.21.93 1.22.89 1.25.87 1.27.84 1.28.8 1.31.78 1.32.74 1.34.71 1.37.67 1.37.64 1.4.61 1.41.57 1.44.54 1.44.5 1.46.47 1.48.42 1.49.39 1.51.35 1.52.31 1.54.28 1.55.23 1.56.19 1.57.15 1.59.11 1.6.06 1.61.02 1.62L1584 820.064l-.02-1.621-.07-1.609-.1-1.598-.15-1.586-.19-1.574-.24-1.562-.27-1.548-.31-1.535-.35-1.522-.39-1.507-.42-1.493-.47-1.477-.5-1.462-.54-1.447-.57-1.431-.61-1.413-.64-1.396-.67-1.38-.71-1.361-.75-1.344-.77-1.324-.8-1.305-.84-1.286-.87-1.266-.89-1.246-.93-1.225-.95-1.205z"/><path id="_338449200" class="fil1" d="M1584 820.064 2719.88 1955.95v.53l-.02.58-.03.64-.04.69-.05.75-.06.8-.08.86-.08.91L1583.64 825.823l.08-.91.08-.855.06-.801.05-.746.04-.692.03-.638.02-.585z"/><path id="_338448816" class="fil1" d="M1150.56 554.726 2286.44 1690.61l1.6 1.85 1.51 1.92 1.43 2 1.32 2.07 1.23 2.13 1.13 2.2 1.02 2.25.92 2.31.8 2.37.69 2.41.57 2.46.45 2.51.32 2.54.2 2.58.07 2.62L1163.82 588.947l-.07-2.615-.2-2.581-.32-2.545-.45-2.504-.57-2.462-.69-2.415-.8-2.365-.92-2.312-1.02-2.255-1.13-2.196-1.23-2.133-1.32-2.067-1.43-1.997-1.51-1.925z"/><path id="_338448840" class="fil1" d="m1549.18 1180.77 1135.88 1135.89-.18 1.68-.22 1.67-.24 1.66-.29 1.65-.31 1.63-.35 1.63-.38 1.62-.42 1.6-.44 1.59-.48 1.57-.51 1.56-.54 1.55-.57 1.53-.6 1.51-.63 1.5-.66 1.48-.69 1.46-.72 1.44-.75 1.43-.78 1.4-.81 1.38-.83 1.37-.86 1.34-.89 1.32-.92 1.3-.94 1.27-.97 1.25-1 1.23-1.02 1.2-1.05 1.17-1.07 1.15-1.1 1.13-1135.88-1135.88 1.1-1.13 1.07-1.15 1.05-1.17 1.02-1.21.99-1.22.98-1.25.94-1.28.92-1.29.89-1.32.86-1.35.83-1.36.81-1.38.78-1.41.75-1.42.72-1.44.69-1.47.66-1.47.63-1.5.6-1.52.57-1.52.54-1.55.51-1.56.48-1.58.44-1.58.42-1.61.38-1.61.35-1.63.31-1.64.29-1.65.24-1.66.22-1.67z"/><path id="_338449800" class="fil1" d="m1527.96 1227.05 1135.88 1135.88-1.14 1.11-1.15 1.08-1.18 1.05-1.21 1.03-1.22.99-1.25.97-1.27.94-1.29.91-1.32.87-1.33.85-1.36.81-1.38.78-1.39.75-1.42.71-1.44.68-1.46.64-1.47.62-1.5.57-1.51.54-1.54.5-1.55.46-1.57.43-1.59.39-1.6.35-1.62.31-1.64.27-1.66.23-1.67.19-1.69.15-1.7.11-1.72.06-1.73.03-1135.88-1135.89 1.73-.02 1.72-.06 1.7-.11 1.69-.15 1.67-.19 1.66-.23 1.64-.27 1.62-.31 1.6-.35 1.59-.39 1.57-.43 1.55-.46 1.53-.5 1.52-.54 1.5-.58 1.47-.61 1.46-.64 1.44-.68 1.41-.72 1.4-.74 1.38-.78 1.36-.82 1.33-.84 1.31-.88 1.3-.9 1.27-.94 1.25-.97 1.22-.99 1.21-1.03 1.18-1.05 1.15-1.09z"/><path id="_338449464" class="fil1" d="M640.569 639.909 1776.45 1775.79h-151.66L488.908 639.909z"/><path id="_338450088" class="fil1" d="M825.297 1246.42 1961.18 2382.31l15.34 88.02L840.642 1334.45z"/><path id="_338449560" class="fil1" d="M488.908 639.909 1624.79 1775.79l-2.55-.13-2.47-.38-2.39-.61-2.29-.84-2.17-1.05-2.06-1.24-1.92-1.44-1.76-1.6L471.294 632.613l1.77 1.608 1.918 1.433 2.054 1.248 2.177 1.05 2.289.837 2.387.613 2.473.378z"/><path id="_338449584" class="fil1" d="M671.553 597.013 1807.43 1732.9l1.18 1.21 1.1 1.28 1.01 1.36.92 1.43.81 1.5L676.573 603.794l-.819-1.493-.916-1.429-1.009-1.361-1.096-1.287z"/><path id="_338450112" class="fil1" d="M676.573 603.794 1812.45 1739.68l48.44 78.1L725.008 681.901z"/><path id="_338449704" class="fil1" d="M725.089 681.851 1860.97 1817.73l.71 1.22.63 1.25.56 1.26.48 1.28.41 1.29.34 1.31.26 1.32.19 1.32L728.665 692.093l-.189-1.32-.262-1.316-.334-1.306-.408-1.295-.483-1.28-.557-1.262-.633-1.244z"/><path id="_338449680" class="fil1" d="M728.665 692.093 1864.55 1827.98l11.05 63.4L739.719 755.502z"/><path id="_338450064" class="fil1" d="m1481.39 1246.42 1135.88 1135.89h-656.09L825.297 1246.42z"/><path id="_338449872" class="fil1" d="M1228.92 1384.27 2364.8 2520.15h-222.15L1006.77 1384.27z"/><path id="_338450688" class="fil1" d="m1364.39 1485 1135.88 1135.88-1.47 1.43-1.5 1.4-1.53 1.35-1.56 1.33-1.6 1.28-1.62 1.25-1.66 1.21-1.69 1.17-1.71 1.13-1.75 1.09-1.77 1.05-1.8 1-1.83.97-1.85.92-1.88.87-1.9.83-1.92.79-1.95.74-1.97.7-2 .64-2.01.6-2.03.55-2.06.5-2.07.45-2.09.41-2.11.35-2.13.29-2.14.25-2.16.19-2.17.14-2.19.08-2.2.03-1135.88-1135.88 2.2-.03 2.19-.08 2.17-.14 2.16-.19 2.14-.25 2.13-.3 2.11-.35 2.09-.4 2.07-.45 2.05-.5 2.04-.55 2.01-.6 1.99-.65 1.98-.69 1.94-.74 1.93-.79 1.9-.83 1.88-.88 1.85-.92 1.83-.96 1.8-1.01 1.77-1.04 1.74-1.09 1.72-1.13 1.69-1.17 1.66-1.21 1.62-1.25 1.6-1.28 1.56-1.33 1.53-1.36 1.5-1.39z"/><path id="_338450472" class="fil1" d="m1006.77 1384.27 1135.88 1135.88.6 1.13.58 1.14.57 1.16.54 1.16.54 1.17.51 1.18.5 1.19.48 1.2.46 1.21.45 1.22.42 1.22.41 1.24.39 1.24.37 1.25.36 1.26.33 1.26.31 1.28.3 1.28.28 1.29.26 1.29.23 1.3.22 1.31.2 1.32.17 1.32.16 1.33.14 1.33.12 1.34.09 1.35.07 1.35.06 1.36.03 1.36.01 1.37-1135.88-1135.88-.01-1.37-.03-1.36-.06-1.36-.07-1.35-.1-1.35-.11-1.34-.14-1.33-.16-1.33-.17-1.32-.2-1.32-.22-1.31-.24-1.3-.25-1.3-.28-1.28-.3-1.29-.31-1.27-.33-1.26-.36-1.26-.37-1.25-.39-1.25-.41-1.23-.42-1.22-.45-1.22-.46-1.21-.48-1.2-.5-1.19-.51-1.18-.54-1.17-.55-1.17-.56-1.15-.58-1.14z"/><path id="_338450808" class="fil1" d="m1016.93 1424.68 1135.88 1135.88-.03 2.2-.08 2.19-.14 2.18-.19 2.15-.24 2.15-.3 2.12-.35 2.11-.4 2.09-.45 2.08-.5 2.05-.56 2.03-.59 2.02-.65 1.99-.7 1.97-.74 1.95-.78 1.93-.84 1.9-.87 1.87-.92 1.86-.97 1.82-1 1.8-1.05 1.77-1.09 1.75-1.13 1.72-1.17 1.68-1.21 1.66-1.25 1.63-1.28 1.59-1.32 1.57-1.36 1.53-1.4 1.5-1.43 1.46L991.941 1485l1.431-1.47 1.395-1.49 1.358-1.54 1.323-1.56 1.285-1.59 1.248-1.63 1.209-1.66 1.17-1.69 1.13-1.71 1.09-1.75 1.05-1.77 1-1.8.97-1.83.92-1.85.87-1.88.83-1.9.79-1.92.74-1.95.7-1.97.64-1.99.6-2.02.55-2.03.5-2.06.46-2.07.4-2.09.35-2.11.29-2.13.25-2.14.19-2.16.14-2.17.08-2.19z"/><path id="_338450736" class="fil1" d="M856.481 1384.27 1992.36 2520.15h-36.46L820.02 1384.27z"/><path id="_338450352" class="fil1" d="M931.622 1509.99 2067.5 2645.87l-2.2-.03-2.19-.08-2.17-.14-2.16-.19-2.14-.25-2.13-.29-2.11-.35-2.09-.41-2.07-.45-2.05-.5-2.04-.55-2.01-.6-1.99-.64-1.98-.7-1.94-.74-1.93-.79-1.9-.83-1.88-.87-1.85-.92-1.83-.97-1.8-1-1.77-1.05-1.74-1.09-1.72-1.13-1.69-1.17-1.65-1.21-1.63-1.25-1.6-1.28-1.56-1.33-1.53-1.35L874.266 1487.82l1.532 1.36 1.563 1.33 1.596 1.28 1.628 1.25 1.657 1.21 1.687 1.17 1.717 1.13 1.744 1.09 1.773 1.04 1.8 1.01 1.826.96 1.852.92 1.877.88 1.901.83 1.927.79 1.947.74 1.971.69 1.993.65 2.014.6 2.034.55 2.054.5 2.072.45 2.092.4 2.11.35 2.126.3 2.142.25 2.159.19 2.173.14 2.188.08z"/><path id="_338450232" class="fil1" d="M820.02 1384.27 1955.9 2520.15l-2.23-.07-2.2-.27-2.14-.46-2.07-.64-2.01-.82-1.92-.98-1.83-1.15-1.72-1.29-1.6-1.44L802.299 1377.15l1.605 1.44 1.719 1.29 1.826 1.14 1.921.99 2.004.81 2.078.64 2.141.46 2.192.27z"/><path id="_338450592" class="fil1" d="M991.941 1485 2127.82 2620.88l-1.46 1.43-1.5 1.4-1.53 1.35-1.57 1.33-1.59 1.28-1.63 1.25-1.66 1.21-1.68 1.17-1.72 1.13-1.74 1.09-1.78 1.05-1.8 1-1.82.97-1.85.92-1.88.87-1.9.83-1.93.79-1.95.74-1.97.7-1.99.64-2.01.6-2.04.55-2.05.5-2.08.45-2.09.41-2.11.35-2.12.29-2.15.25-2.15.19-2.18.14-2.18.08-2.21.03L931.622 1509.99l2.202-.03 2.187-.08 2.174-.14 2.159-.19 2.142-.25 2.126-.3 2.11-.35 2.091-.4 2.073-.45 2.054-.5 2.034-.55 2.014-.6 1.992-.65 1.972-.69 1.948-.74 1.926-.79 1.901-.83 1.877-.88 1.852-.92 1.827-.96 1.799-1.01 1.773-1.04 1.745-1.09 1.717-1.13 1.686-1.17 1.658-1.21 1.627-1.25 1.595-1.28 1.564-1.33 1.532-1.36 1.498-1.39z"/><path id="_338450448" class="fil1" d="m1505.35 1341.74 1135.89 1135.89 1.6 1.76 1.44 1.92 1.24 2.06 1.05 2.17.84 2.29.62 2.39.37 2.47.13 2.55-1135.88-1135.88-.13-2.55-.38-2.47-.61-2.39-.84-2.29-1.05-2.18-1.24-2.05-1.44-1.92z"/><path id="_338450856" class="fil1" d="m1512.65 1359.36 1135.88 1135.88-.13 2.55-.37 2.47-.62 2.39-.84 2.28-1.05 2.18-1.24 2.06-1.44 1.91-1.6 1.77-1.77 1.61-1.92 1.43-2.06 1.25-2.17 1.05-2.29.84-2.39.61-2.47.38-2.55.13-1135.88-1135.88 2.55-.13 2.47-.38 2.39-.61 2.29-.84 2.17-1.05 2.06-1.25 1.91-1.43 1.77-1.61 1.61-1.77 1.44-1.92 1.24-2.05 1.05-2.18.84-2.29.61-2.38.38-2.48z"/><path id="_338450616" class="fil1" d="m1487.74 1384.27 1135.88 1135.88h-108.53L1379.21 1384.27z"/><path id="_338451024" class="fil1" d="m1379.21 1384.27 1135.88 1135.88.6 1.13.58 1.14.57 1.16.55 1.16.53 1.17.52 1.18.49 1.19.48 1.2.47 1.21.44 1.22.43 1.22.41 1.24.39 1.24.37 1.25.35 1.26.34 1.26.31 1.28.3 1.28.27 1.29.26 1.29.24 1.3.21 1.31.2 1.32.18 1.32.16 1.33.13 1.33.12 1.34.09 1.35.08 1.35.05 1.36.03 1.36.02 1.37-1135.89-1135.88-.01-1.37-.03-1.36-.05-1.36-.08-1.35-.09-1.35-.12-1.34-.14-1.33-.15-1.33-.18-1.32-.2-1.32-.21-1.31-.24-1.3-.26-1.3-.28-1.28-.29-1.29-.32-1.27-.33-1.26-.35-1.26-.37-1.25-.39-1.25-.41-1.23-.43-1.22-.44-1.22-.47-1.21-.48-1.2-.49-1.19-.52-1.18-.53-1.17-.55-1.17-.57-1.15-.58-1.14z"/><path id="_338450976" class="fil1" d="m1389.37 1424.68 1135.89 1135.88-.03 2.2-.09 2.19-.13 2.18-.2 2.15-.24 2.15-.3 2.12-.35 2.11-.4 2.09-.45 2.08-.5 2.05-.55 2.03-.6 2.02-.65 1.99-.69 1.97-.74 1.95-.79 1.93-.83 1.9-.88 1.87-.92 1.86-.96 1.82-1.01 1.8-1.05 1.77-1.09 1.75-1.13 1.72-1.17 1.68-1.2 1.66-1.25 1.63-1.29 1.59-1.32 1.57-1.36 1.53-1.39 1.5-1.43 1.46L1364.39 1485l1.43-1.47 1.39-1.49 1.36-1.54 1.32-1.56 1.29-1.59 1.24-1.63 1.21-1.66 1.17-1.69 1.13-1.71 1.09-1.75 1.05-1.77 1.01-1.8.96-1.83.92-1.85.88-1.88.83-1.9.79-1.92.74-1.95.69-1.97.65-1.99.6-2.02.55-2.03.5-2.06.45-2.07.4-2.09.35-2.11.3-2.13.24-2.14.2-2.16.13-2.17.09-2.19z"/><path id="_338451528" class="fil1" d="m1304.07 1509.99 1135.88 1135.88-2.2-.03-2.19-.08-2.17-.14-2.16-.19-2.15-.25-2.12-.29-2.11-.35-2.09-.41-2.08-.45-2.05-.5-2.03-.55-2.02-.6-1.99-.64-1.97-.7-1.95-.74-1.93-.79-1.9-.83-1.87-.87-1.86-.92-1.82-.97-1.8-1-1.77-1.05-1.75-1.09-1.72-1.13-1.68-1.17-1.66-1.21-1.63-1.25-1.59-1.28-1.57-1.33-1.53-1.35-1.5-1.4-1135.88-1135.88 1.5 1.39 1.53 1.36 1.57 1.33 1.59 1.28 1.63 1.25 1.66 1.21 1.68 1.17 1.72 1.13 1.74 1.09 1.78 1.04 1.8 1.01 1.82.96 1.86.92 1.87.88 1.9.83 1.93.79 1.95.74 1.97.69 1.99.65 2.02.6 2.03.55 2.05.5 2.08.45 2.09.4 2.11.35 2.12.3 2.15.25 2.15.19 2.18.14 2.19.08z"/><path id="_338451288" class="fil1" d="M1163.82 588.947 2299.7 1724.83v166.55L1163.82 755.502z"/><path id="_338451144" class="fil1" d="M1583.64 825.823 2719.52 1961.71l-34.46 354.95-1135.88-1135.89z"/><path id="_341215648" class="fil1" d="M1225 594.561h183.481c10.617 0 20.26 4.331 27.236 11.31 6.98 6.977 11.31 16.618 11.31 27.237v122.394h68.823c1.63 0 3.822.135 6.542.399 16.189 1.57 31.333 8.86 42.414 19.75 11.733 11.529 19.196 27.073 19.196 44.412 0 1.349-.119 3.259-.362 5.759l-34.46 354.951c-1.743 17.962-9.375 34.428-21.222 46.273-11.965 11.967-27.994 19.376-46.569 19.376H825.3l15.344 88.024h647.098c13.758 0 24.91 11.154 24.91 24.91s-11.152 24.91-24.91 24.91h-108.53c6.484 12.029 10.165 25.792 10.165 40.413 0 23.555-9.55 44.88-24.989 60.32-15.437 15.437-36.765 24.986-60.319 24.986-23.553 0-44.88-9.549-60.319-24.987-15.438-15.438-24.987-36.764-24.987-60.319 0-14.62 3.68-28.384 10.163-40.414h-222.158c6.485 12.03 10.165 25.793 10.165 40.414 0 23.555-9.55 44.88-24.989 60.32-15.437 15.437-36.765 24.986-60.319 24.986-23.553 0-44.88-9.549-60.318-24.987-15.437-15.438-24.988-36.764-24.988-60.319 0-14.62 3.68-28.384 10.165-40.414h-36.461c-12.008.152-22.695-8.42-24.823-20.631L680.217 703.84l-39.646-63.932H488.91c-13.757 0-24.91-11.153-24.91-24.91s11.153-24.909 24.91-24.909h165.414c9.725 0 18.149 5.576 22.25 13.704L725.01 681.9l.08-.05a24.821 24.821 0 0 1 3.577 10.243l11.054 63.408h79.79V588.945c0-14.03 5.724-26.77 14.945-35.99 9.22-9.219 21.958-14.942 35.99-14.942h242.437c14.029 0 26.77 5.723 35.989 14.943 9.22 9.22 14.946 21.96 14.946 35.99V755.5h22.635V633.107c0-10.618 4.333-20.26 11.31-27.237 6.979-6.978 16.619-11.31 27.238-11.31z"/></g></g><path d="M1024 0c565.539 0 1024 458.461 1024 1024s-458.461 1024-1024 1024S0 1589.539 0 1024 458.461 0 1024 0z" style="fill:none"/><path d="M1186.45 770.544V633.108c0-10.618 4.332-20.26 11.31-27.237 6.978-6.978 16.618-11.31 27.238-11.31h183.48c10.618 0 20.26 4.332 27.238 11.31 6.978 6.978 11.31 16.62 11.31 27.237v137.436H1186.45z" style="fill:#f57f17;fill-rule:nonzero"/><path d="M819.51 770.544V588.947c0-14.03 5.724-26.77 14.944-35.99 9.22-9.22 21.958-14.944 35.99-14.944h242.437c14.03 0 26.77 5.725 35.99 14.945 9.22 9.22 14.944 21.96 14.944 35.989v181.597H819.51z" style="fill:#fbc02d;fill-rule:nonzero"/><path d="M488.909 590.09c-13.758 0-24.91 11.153-24.91 24.91 0 13.756 11.153 24.909 24.91 24.909h151.66l39.646 63.932 114.982 659.794c2.128 12.211 12.815 20.783 24.823 20.631h667.72c13.757 0 24.91-11.153 24.91-24.91 0-13.755-11.153-24.909-24.91-24.909H840.642l-15.345-88.024h656.091c18.576 0 34.604-7.409 46.569-19.376 11.847-11.846 19.479-28.31 21.222-46.273l34.461-354.951c.242-2.502.362-4.41.362-5.76 0-17.338-7.464-32.882-19.197-44.412-11.081-10.89-26.225-18.18-42.413-19.75-2.72-.264-4.913-.398-6.544-.398H739.72l-11.054-63.41a24.821 24.821 0 0 0-3.576-10.242l-.08.05-48.436-78.106c-4.102-8.129-12.525-13.705-22.251-13.705H488.91z" style="fill:#6d4c41;fill-rule:nonzero"/><path class="fil6" d="M931.624 1339.37c23.554 0 44.88 9.55 60.319 24.989 15.438 15.437 24.987 36.765 24.987 60.318 0 23.554-9.549 44.881-24.987 60.32-15.438 15.438-36.765 24.987-60.319 24.987-23.555 0-44.882-9.55-60.319-24.988-15.438-15.438-24.988-36.765-24.988-60.319 0-23.553 9.55-44.881 24.988-60.318 15.437-15.439 36.766-24.989 60.319-24.989zM1304.07 1339.37c23.554 0 44.88 9.55 60.319 24.989 15.438 15.437 24.989 36.765 24.989 60.318 0 23.554-9.55 44.881-24.99 60.32-15.437 15.438-36.764 24.987-60.318 24.987-23.554 0-44.88-9.55-60.319-24.988-15.438-15.438-24.987-36.765-24.987-60.319 0-23.553 9.549-44.881 24.987-60.318 15.438-15.439 36.765-24.989 60.319-24.989z"/><path class="fil7" d="M1304.07 1384.27c11.16 0 21.262 4.524 28.577 11.838 7.313 7.314 11.838 17.418 11.838 28.576 0 11.159-4.525 21.263-11.838 28.577-7.315 7.314-17.418 11.838-28.577 11.838-11.16 0-21.262-4.524-28.577-11.838-7.313-7.314-11.838-17.418-11.838-28.577 0-11.158 4.525-21.262 11.838-28.576 7.315-7.314 17.418-11.838 28.577-11.838zM931.624 1384.27c11.158 0 21.262 4.524 28.576 11.838 7.314 7.314 11.838 17.418 11.838 28.576 0 11.159-4.524 21.263-11.838 28.577-7.314 7.314-17.418 11.838-28.576 11.838-11.16 0-21.263-4.524-28.577-11.838-7.314-7.314-11.838-17.418-11.838-28.577 0-11.158 4.524-21.262 11.838-28.576 7.314-7.314 17.418-11.838 28.577-11.838z"/></g></svg>